<svg width="1882" height="941" viewBox="0 0 1882 941" fill="none" xmlns="http://www.w3.org/2000/svg">
<rect width="1882" height="941" fill="#F6F0E1"/>
<path d="M400.9 168.656C401.218 168.609 401.539 168.561 401.857 168.515C475.541 162.362 548.586 185.108 605.441 231.95C668.626 283.755 708.234 358.867 715.291 440.27C721.876 510.677 701.115 583.005 655.349 637.388C618.113 681.75 564.727 709.437 507.012 714.312C446.678 719.039 386.636 701.542 340.8 661.477C257.516 588.682 236.157 453.839 311.899 367.91C343.171 332.686 387.166 311.344 434.188 308.59C478.49 306.095 523.464 321.005 556.373 351.006C583.861 376.483 600.077 411.853 601.445 449.307C603.796 508.583 571.336 557.017 513.507 572.879C505.909 574.885 497.543 576.619 489.649 576.651C445.432 576.831 391.162 541.179 399.331 491.475C401.741 476.813 406.419 467.141 416.964 456.866C425.599 448.449 436.146 444.108 448.136 444.618C461.814 445.204 472.684 454.723 467.969 468.87C464.809 476.26 455.807 483.058 455.316 491.451C454.194 510.672 473.396 523.41 490.839 523.833C505.214 524.183 517.982 516.745 527.637 506.914C558.615 475.378 549.46 423.714 519.77 394.793C498.913 374.459 472.738 366.548 444.259 366.728C411.948 366.873 381.013 379.835 358.25 402.77C330.262 431.183 319.443 465.183 319.497 504.291C320.14 519.577 321.746 530.35 326.5 545.131C339.163 584.526 367.138 617.17 404.131 635.714C498.129 683.564 602.251 636.314 647.685 545.411C672.867 494.196 676.637 435.067 658.161 381.071C637.93 321.282 594.784 271.974 538.209 243.986C328.443 141.469 115.065 363.307 189.954 573.731C221.068 660.683 292.978 726.758 382.25 750.42C393.839 753.556 405.615 755.958 417.505 757.608C425.303 758.713 440.693 758.618 446.691 761.443C449.146 766.457 449.015 764.052 448.116 768.784C445.539 771.555 441.711 772.952 437.978 772.989C368.061 773.63 293.144 747.187 240.097 703.947C178.406 652.948 139.456 579.568 131.782 499.897C123.37 418.676 147.863 337.472 199.777 274.447C250.224 214.016 322.523 175.986 400.9 168.656Z" fill="url(#paint0_linear_1_113)"/>
<path d="M1124.76 238.276C1130.59 237.016 1134.37 240.453 1134.69 246.07C1135.51 260.3 1135.04 275.116 1134.99 289.361C1134.78 319.711 1134.82 350.065 1135.11 380.416C1162.75 345.812 1197.27 328.917 1242.3 344.972C1281.89 359.092 1281.5 408.979 1281.4 444.354L1281.22 494.396C1281.19 506.329 1280.54 522.084 1285.44 533C1288.24 539.231 1290.85 540.246 1296.93 542.494L1296.79 558.326C1265.97 558.193 1235.14 558.234 1204.32 558.451L1204.3 543.941C1216.15 537.767 1218.63 533.532 1220.41 520.049C1222.25 506.198 1221.56 491.947 1221.52 477.974C1221.55 457.001 1221.38 436.025 1221 415.053C1217.01 364.146 1142.61 371.046 1134.94 413.553C1133.91 419.288 1134.3 431.771 1134.55 437.923C1135.64 465.804 1132.48 494.392 1136.91 521.959C1138.59 532.269 1141.89 536.865 1150.38 542.504L1150.45 558.418L1055.93 558.316L1056.01 542.735C1071.29 535.65 1073.28 524.255 1073.43 508.329C1074.1 436.123 1073.49 363.802 1073.1 291.588C1073.03 278.466 1072.61 273.768 1059.71 269.727L1059.8 249.905C1081.83 248.553 1103.63 244.651 1124.76 238.276Z" fill="#6C8158"/>
<path d="M924.857 253.271C953.376 252.534 981.689 258.288 1007.66 270.097C1009.16 287.688 1008.61 313.818 1008.83 332.102L994.172 331.86C979.248 307.316 961.13 286.769 930.926 284.592C904.806 282.709 877.875 293.888 876.606 323.638C875.821 347.422 904.852 362.167 923.468 370.623C975.338 394.182 1032.04 408.804 1027.35 478.372C1022.61 548.768 962.442 567.413 901.015 562.774C871.744 560.576 850.518 554.455 823.217 545.468C823.138 520.847 822.805 496.225 822.22 471.61L836.106 471.633C855.772 507.06 875.9 531.036 918.997 531.375C945.321 531.582 970.421 515.735 969.692 487.222C968.79 451.959 921.862 441.118 896.511 428.873C860.211 412.42 822.415 393.336 820.93 347.853C819.332 323.669 826.788 302.508 843.162 284.644C865.534 260.238 893.365 254.817 924.857 253.271Z" fill="#6C8158"/>
<path d="M1562.27 244.928C1579.43 243.568 1600.58 246.797 1616.86 252.407L1616.98 291.834C1610.8 292.967 1604.16 293.877 1597.92 294.842C1592.55 281.974 1583.67 268.685 1568.57 268.439C1531.92 267.848 1535.57 320.084 1535.74 342.687L1588.44 342.918L1588.59 373.554L1539.4 373.491C1537.48 418.076 1539.36 466.421 1539.73 511.293C1539.84 525.388 1543.13 535.638 1557.2 540.569L1560.1 541.208C1563.04 544.5 1561.88 553.643 1561.7 558.399C1528.08 558.226 1494.45 558.241 1460.82 558.447L1460.71 541.021C1471.9 536.798 1477.97 532.836 1479.31 520.284C1481.15 503.002 1480.44 484.714 1480.43 467.354C1480.51 436.102 1480.4 404.848 1480.12 373.593C1468.9 373.425 1457.37 373.531 1446.12 373.506L1446.11 342.762L1480.82 342.82C1482.46 283.259 1497.31 249.692 1562.27 244.928Z" fill="#6C8158"/>
<path d="M1661.55 282.53C1669.87 282.861 1678.49 283.463 1686.84 283.926L1686.87 342.885C1706.15 342.743 1725.43 342.766 1744.71 342.951L1744.81 373.618L1687 373.437C1686.34 396.267 1684.15 493.534 1690.33 509.652C1692.35 514.914 1695.54 517.835 1700.81 519.918C1715.9 525.893 1734.24 518.495 1747.98 512.208C1754.18 527.926 1751.27 532.046 1740.31 543.506C1723 556.707 1711.26 559.009 1690.14 560.061C1621.44 563.484 1628.52 507.777 1628.51 459.544L1628.49 373.506L1600.91 373.477C1601.15 364.021 1600.84 353.67 1600.74 344.147C1637.35 333.194 1649.09 318.284 1661.55 282.53Z" fill="#6C8158"/>
<path d="M1403.26 341.66C1403.58 341.781 1403.92 341.86 1404.23 342.02C1407.19 343.574 1408.6 347.224 1409.18 350.336C1411.21 361.305 1410.08 373.887 1410.09 385.097C1410.11 411.785 1406.76 514.343 1413.91 530.873C1416.72 537.388 1421.83 539.45 1427.96 542.056L1427.86 558.399L1340.57 558.336C1335.88 558.299 1337.78 559.02 1334.28 557.016C1332.42 552.845 1333.35 547.45 1333.63 542.652C1339.48 538.581 1346.89 531.984 1347.78 524.255C1352.48 482.993 1349.75 439.279 1349.5 397.671C1349.41 382.534 1345.69 377.352 1331.65 374.26C1331.84 368.098 1332.3 361.646 1332.64 355.463C1356.43 351.378 1379.62 346.42 1403.26 341.66Z" fill="#6C8158"/>
<path d="M1373.04 248.038C1391.55 244.591 1409.39 256.702 1413.02 275.185C1416.64 293.667 1404.71 311.62 1386.26 315.424C1367.56 319.28 1349.31 307.141 1345.63 288.407C1341.96 269.67 1354.27 251.534 1373.04 248.038Z" fill="#6C8158"/>
<path d="M884.141 626.314H862.383V682.51H844.415V626.314H822.658V612.838H884.141V626.314ZM947.73 656.26C947.73 664.901 945.203 671.717 940.149 676.708C935.127 681.668 928.062 684.148 918.953 684.148C909.845 684.148 902.764 681.668 897.71 676.708C892.688 671.717 890.177 664.901 890.177 656.26C890.177 647.557 892.704 640.726 897.757 635.766C902.842 630.806 909.907 628.326 918.953 628.326C928.124 628.326 935.205 630.822 940.196 635.813C945.218 640.804 947.73 647.62 947.73 656.26ZM927.001 669.034C928.093 667.693 928.904 666.086 929.434 664.215C929.996 662.312 930.277 659.692 930.277 656.354C930.277 653.266 929.996 650.677 929.434 648.587C928.873 646.497 928.093 644.828 927.095 643.58C926.097 642.301 924.896 641.396 923.492 640.866C922.088 640.336 920.575 640.071 918.953 640.071C917.331 640.071 915.881 640.289 914.602 640.726C913.354 641.162 912.153 642.036 910.999 643.346C909.969 644.563 909.143 646.231 908.519 648.353C907.926 650.474 907.63 653.141 907.63 656.354C907.63 659.224 907.895 661.719 908.425 663.84C908.956 665.93 909.735 667.615 910.765 668.894C911.763 670.11 912.948 670.999 914.321 671.561C915.725 672.122 917.316 672.403 919.094 672.403C920.622 672.403 922.073 672.154 923.445 671.654C924.849 671.124 926.034 670.251 927.001 669.034ZM1010.9 676.474C1010.9 681.403 1010.2 685.551 1008.79 688.92C1007.39 692.289 1005.42 694.925 1002.9 696.828C1000.37 698.762 997.312 700.15 993.725 700.992C990.169 701.866 986.145 702.302 981.653 702.302C978.003 702.302 974.4 702.084 970.844 701.647C967.319 701.211 964.262 700.68 961.673 700.056V686.908H963.732C965.791 687.719 968.302 688.452 971.265 689.107C974.229 689.794 976.88 690.137 979.22 690.137C982.339 690.137 984.866 689.84 986.8 689.248C988.765 688.686 990.262 687.875 991.292 686.815C992.259 685.816 992.961 684.537 993.397 682.978C993.834 681.418 994.052 679.546 994.052 677.363V676.38C992.025 678.034 989.779 679.344 987.315 680.311C984.85 681.278 982.105 681.761 979.079 681.761C971.718 681.761 966.04 679.546 962.048 675.117C958.055 670.687 956.058 663.95 956.058 654.903C956.058 650.567 956.667 646.824 957.883 643.674C959.1 640.523 960.815 637.778 963.03 635.438C965.089 633.255 967.616 631.555 970.61 630.338C973.636 629.122 976.724 628.513 979.875 628.513C982.714 628.513 985.287 628.856 987.595 629.543C989.935 630.198 992.056 631.118 993.959 632.303L994.567 629.964H1010.9V676.474ZM994.052 665.946V642.129C993.085 641.724 991.9 641.412 990.496 641.194C989.093 640.944 987.829 640.819 986.706 640.819C982.277 640.819 978.955 642.098 976.74 644.656C974.525 647.183 973.418 650.723 973.418 655.278C973.418 660.331 974.354 663.856 976.225 665.852C978.128 667.849 980.935 668.847 984.648 668.847C986.332 668.847 987.985 668.582 989.607 668.052C991.229 667.521 992.711 666.819 994.052 665.946ZM1078.56 659.348H1040C1040.25 663.466 1041.81 666.617 1044.68 668.8C1047.58 670.984 1051.84 672.076 1057.45 672.076C1061.01 672.076 1064.46 671.436 1067.79 670.157C1071.13 668.878 1073.77 667.506 1075.7 666.04H1077.57V679.562C1073.77 681.091 1070.18 682.198 1066.81 682.884C1063.44 683.57 1059.72 683.914 1055.63 683.914C1045.09 683.914 1037.01 681.543 1031.39 676.801C1025.78 672.06 1022.97 665.306 1022.97 656.541C1022.97 647.869 1025.62 641.006 1030.92 635.953C1036.26 630.868 1043.56 628.326 1052.82 628.326C1061.37 628.326 1067.79 630.494 1072.1 634.83C1076.4 639.135 1078.56 645.342 1078.56 653.453V659.348ZM1061.81 649.476C1061.71 645.951 1060.84 643.299 1059.19 641.521C1057.53 639.743 1054.96 638.854 1051.46 638.854C1048.22 638.854 1045.55 639.696 1043.46 641.381C1041.37 643.065 1040.2 645.763 1039.95 649.476H1061.81ZM1124.04 682.042C1122.23 682.51 1120.31 682.869 1118.28 683.118C1116.25 683.399 1113.77 683.539 1110.84 683.539C1104.29 683.539 1099.41 682.214 1096.2 679.562C1093.02 676.911 1091.42 672.372 1091.42 665.946V641.381H1084.5V629.964H1091.42V614.944H1108.27V629.964H1124.04V641.381H1108.27V660.004C1108.27 661.844 1108.28 663.45 1108.32 664.823C1108.35 666.195 1108.6 667.428 1109.06 668.519C1109.5 669.611 1110.27 670.485 1111.36 671.14C1112.48 671.764 1114.1 672.076 1116.22 672.076C1117.1 672.076 1118.24 671.888 1119.64 671.514C1121.07 671.14 1122.07 670.797 1122.63 670.485H1124.04V682.042ZM1186.92 682.51H1169.99V656.447C1169.99 654.326 1169.88 652.221 1169.66 650.131C1169.44 648.009 1169.07 646.45 1168.54 645.452C1167.91 644.297 1166.99 643.455 1165.77 642.925C1164.59 642.395 1162.92 642.129 1160.77 642.129C1159.24 642.129 1157.68 642.379 1156.09 642.878C1154.53 643.377 1152.83 644.173 1150.99 645.264V682.51H1134.14V609.703H1150.99V635.766C1153.98 633.426 1156.85 631.633 1159.6 630.385C1162.37 629.137 1165.45 628.513 1168.82 628.513C1174.49 628.513 1178.92 630.167 1182.1 633.473C1185.32 636.78 1186.92 641.724 1186.92 648.306V682.51ZM1254.21 659.348H1215.65C1215.9 663.466 1217.46 666.617 1220.33 668.8C1223.23 670.984 1227.49 672.076 1233.11 672.076C1236.66 672.076 1240.11 671.436 1243.45 670.157C1246.79 668.878 1249.42 667.506 1251.36 666.04H1253.23V679.562C1249.42 681.091 1245.83 682.198 1242.46 682.884C1239.1 683.57 1235.37 683.914 1231.28 683.914C1220.74 683.914 1212.66 681.543 1207.04 676.801C1201.43 672.06 1198.62 665.306 1198.62 656.541C1198.62 647.869 1201.27 641.006 1206.58 635.953C1211.91 630.868 1219.21 628.326 1228.47 628.326C1237.02 628.326 1243.45 630.494 1247.75 634.83C1252.06 639.135 1254.21 645.342 1254.21 653.453V659.348ZM1237.46 649.476C1237.36 645.951 1236.49 643.299 1234.84 641.521C1233.18 639.743 1230.61 638.854 1227.12 638.854C1223.87 638.854 1221.21 639.696 1219.12 641.381C1217.03 643.065 1215.86 645.763 1215.61 649.476H1237.46ZM1304.18 646.013H1302.68C1301.97 645.763 1300.81 645.576 1299.22 645.452C1297.63 645.327 1296.31 645.264 1295.24 645.264C1292.84 645.264 1290.72 645.42 1288.88 645.732C1287.04 646.044 1285.06 646.575 1282.94 647.323V682.51H1266.09V629.964H1282.94V637.684C1286.65 634.503 1289.88 632.397 1292.62 631.368C1295.37 630.307 1297.9 629.777 1300.2 629.777C1300.8 629.777 1301.47 629.792 1302.22 629.823C1302.97 629.855 1303.62 629.901 1304.18 629.964V646.013ZM1430.28 629.964L1414 682.51H1396.13L1385.41 647.089L1374.88 682.51H1356.77L1340.63 629.964H1358.32L1367.3 666.18L1378.53 629.964H1393.46L1404.13 666.18L1412.97 629.964H1430.28ZM1492.09 659.348H1453.54C1453.79 663.466 1455.35 666.617 1458.22 668.8C1461.12 670.984 1465.38 672.076 1470.99 672.076C1474.55 672.076 1477.99 671.436 1481.33 670.157C1484.67 668.878 1487.31 667.506 1489.24 666.04H1491.11V679.562C1487.31 681.091 1483.72 682.198 1480.35 682.884C1476.98 683.57 1473.25 683.914 1469.17 683.914C1458.62 683.914 1450.54 681.543 1444.93 676.801C1439.31 672.06 1436.51 665.306 1436.51 656.541C1436.51 647.869 1439.16 641.006 1444.46 635.953C1449.8 630.868 1457.09 628.326 1466.36 628.326C1474.91 628.326 1481.33 630.494 1485.64 634.83C1489.94 639.135 1492.09 645.342 1492.09 653.453V659.348ZM1475.34 649.476C1475.25 645.951 1474.38 643.299 1472.72 641.521C1471.07 639.743 1468.5 638.854 1465 638.854C1461.76 638.854 1459.09 639.696 1457 641.381C1454.91 643.065 1453.74 645.763 1453.49 649.476H1475.34ZM1574.82 646.013H1573.32C1572.61 645.763 1571.45 645.576 1569.86 645.452C1568.27 645.327 1566.94 645.264 1565.88 645.264C1563.48 645.264 1561.36 645.42 1559.52 645.732C1557.68 646.044 1555.7 646.575 1553.58 647.323V682.51H1536.73V629.964H1553.58V637.684C1557.29 634.503 1560.52 632.397 1563.26 631.368C1566.01 630.307 1568.53 629.777 1570.84 629.777C1571.44 629.777 1572.11 629.792 1572.85 629.823C1573.6 629.855 1574.26 629.901 1574.82 629.964V646.013ZM1601.21 682.51H1584.37V629.964H1601.21V682.51ZM1601.68 622.477H1583.9V609.703H1601.68V622.477ZM1662.79 665.852C1662.79 671.28 1660.35 675.663 1655.49 679.001C1650.62 682.307 1643.96 683.96 1635.51 683.96C1630.83 683.96 1626.59 683.524 1622.78 682.65C1618.98 681.777 1615.92 680.81 1613.61 679.749V665.899H1615.15C1616 666.492 1616.96 667.147 1618.05 667.864C1619.18 668.551 1620.75 669.299 1622.78 670.11C1624.53 670.828 1626.51 671.452 1628.72 671.982C1630.94 672.481 1633.31 672.731 1635.84 672.731C1639.14 672.731 1641.59 672.372 1643.18 671.654C1644.77 670.906 1645.57 669.814 1645.57 668.379C1645.57 667.1 1645.1 666.18 1644.16 665.618C1643.23 665.026 1641.45 664.464 1638.83 663.934C1637.58 663.653 1635.88 663.357 1633.73 663.045C1631.61 662.702 1629.67 662.296 1627.93 661.828C1623.16 660.581 1619.61 658.647 1617.31 656.026C1615 653.375 1613.84 650.084 1613.84 646.153C1613.84 641.1 1616.23 636.904 1621 633.567C1625.81 630.198 1632.36 628.513 1640.65 628.513C1644.59 628.513 1648.34 628.919 1651.93 629.73C1655.55 630.51 1658.37 631.352 1660.4 632.257V645.545H1658.95C1656.45 643.829 1653.6 642.441 1650.39 641.381C1647.21 640.289 1643.98 639.743 1640.7 639.743C1637.99 639.743 1635.69 640.117 1633.82 640.866C1631.98 641.615 1631.06 642.675 1631.06 644.048C1631.06 645.296 1631.48 646.247 1632.33 646.902C1633.17 647.557 1635.15 648.212 1638.27 648.867C1639.98 649.21 1641.82 649.554 1643.79 649.897C1645.79 650.209 1647.78 650.614 1649.78 651.113C1654.21 652.267 1657.48 654.092 1659.61 656.588C1661.73 659.052 1662.79 662.14 1662.79 665.852ZM1725.77 659.348H1687.21C1687.46 663.466 1689.02 666.617 1691.89 668.8C1694.79 670.984 1699.05 672.076 1704.66 672.076C1708.22 672.076 1711.67 671.436 1715.01 670.157C1718.34 668.878 1720.98 667.506 1722.91 666.04H1724.78V679.562C1720.98 681.091 1717.39 682.198 1714.02 682.884C1710.65 683.57 1706.93 683.914 1702.84 683.914C1692.3 683.914 1684.22 681.543 1678.6 676.801C1672.99 672.06 1670.18 665.306 1670.18 656.541C1670.18 647.869 1672.83 641.006 1678.13 635.953C1683.47 630.868 1690.77 628.326 1700.03 628.326C1708.58 628.326 1715.01 630.494 1719.31 634.83C1723.61 639.135 1725.77 645.342 1725.77 653.453V659.348ZM1709.02 649.476C1708.92 645.951 1708.05 643.299 1706.4 641.521C1704.74 639.743 1702.17 638.854 1698.68 638.854C1695.43 638.854 1692.76 639.696 1690.67 641.381C1688.58 643.065 1687.41 645.763 1687.16 649.476H1709.02Z" fill="#DD8848"/>
<defs>
<linearGradient id="paint0_linear_1_113" x1="343.448" y1="181.009" x2="501.896" y2="753.298" gradientUnits="userSpaceOnUse">
<stop stop-color="#E09B3F"/>
<stop offset="1" stop-color="#DD8649"/>
</linearGradient>
</defs>
</svg>
