<svg xmlns="http://www.w3.org/2000/svg" width="256" height="256" fill="none"><path fill="url(#a)" d="m120.553 28.516.315-.047c24.32-2.03 48.43 5.477 67.195 20.938a100.1 100.1 0 0 1 36.257 68.758c2.174 23.238-4.679 47.111-19.784 65.061a71.8 71.8 0 0 1-48.96 25.389c-19.914 1.56-39.731-4.215-54.86-17.438-27.489-24.027-34.538-68.533-9.54-96.895a58.55 58.55 0 0 1 40.364-19.58c14.622-.823 29.466 4.098 40.328 14a46.55 46.55 0 0 1 14.876 32.446c.776 19.564-9.937 35.55-29.024 40.786-2.508.662-5.269 1.234-7.875 1.245-14.594.059-32.507-11.708-29.81-28.113.795-4.839 2.339-8.032 5.819-11.423 2.851-2.779 6.332-4.211 10.289-4.043 4.515.193 8.103 3.336 6.546 8.005-1.043 2.439-4.014 4.683-4.176 7.453-.37 6.344 5.968 10.548 11.725 10.688 4.745.115 8.958-2.34 12.145-5.584 10.225-10.409 7.203-27.462-2.597-37.007-6.883-6.712-15.523-9.323-24.922-9.263a40.25 40.25 0 0 0-28.388 11.896c-9.238 9.378-12.81 20.6-12.791 33.508.212 5.045.742 8.601 2.31 13.479a50.85 50.85 0 0 0 25.624 29.898c31.025 15.794 65.391.198 80.387-29.805a70.9 70.9 0 0 0 3.458-54.242 78.58 78.58 0 0 0-39.591-45.246C96.637 19.543 26.21 92.763 50.928 162.215a92.61 92.61 0 0 0 63.469 58.318 94 94 0 0 0 11.636 2.372c2.574.365 7.654.334 9.633 1.266.811 1.655.767.861.471 2.423-.851.915-2.114 1.376-3.347 1.388-23.076.212-47.803-8.516-65.312-22.788a99.8 99.8 0 0 1-35.75-67.349A100.72 100.72 0 0 1 54.17 63.433a98.4 98.4 0 0 1 66.383-34.917"/><defs><linearGradient id="a" x1="101.59" x2="153.887" y1="32.593" y2="221.483" gradientUnits="userSpaceOnUse"><stop stop-color="#E09B3F"/><stop offset="1" stop-color="#DD8649"/></linearGradient></defs></svg>

