<svg xmlns="http://www.w3.org/2000/svg" width="1882" height="941" fill="none"><path fill="#fff" d="m400.9 168.656.957-.141c73.684-6.153 146.729 16.593 203.584 63.435a303.26 303.26 0 0 1 109.85 208.32c6.585 70.407-14.176 142.735-59.942 197.118a217.57 217.57 0 0 1-148.337 76.924c-60.334 4.727-120.376-12.77-166.212-52.835-83.284-72.795-104.643-207.638-28.901-293.567a177.4 177.4 0 0 1 122.289-59.32c44.302-2.495 89.276 12.415 122.185 42.416a141.05 141.05 0 0 1 45.072 98.301c2.351 59.276-30.109 107.71-87.938 123.572-7.598 2.006-15.964 3.74-23.858 3.772-44.217.18-98.487-35.472-90.318-85.176 2.41-14.662 7.088-24.334 17.633-34.609 8.635-8.417 19.182-12.758 31.172-12.248 13.678.586 24.548 10.105 19.833 24.252-3.16 7.39-12.162 14.188-12.653 22.581-1.122 19.221 18.08 31.959 35.523 32.382 14.375.35 27.143-7.088 36.798-16.919 30.978-31.536 21.823-83.2-7.867-112.121-20.857-20.334-47.032-28.245-75.511-28.065a121.95 121.95 0 0 0-86.009 36.042c-27.988 28.413-38.807 62.413-38.753 101.521.643 15.286 2.249 26.059 7.003 40.84a154.06 154.06 0 0 0 77.631 90.583c93.998 47.85 198.12.6 243.554-90.303a214.83 214.83 0 0 0 10.476-164.34 238.08 238.08 0 0 0-119.952-137.085C328.443 141.469 115.065 363.307 189.954 573.731c31.114 86.952 103.024 153.027 192.296 176.689a285 285 0 0 0 35.255 7.188c7.798 1.105 23.188 1.01 29.186 3.835 2.455 5.014 2.324 2.609 1.425 7.341-2.577 2.771-6.405 4.168-10.138 4.205-69.917.641-144.834-25.802-197.881-69.042a302.36 302.36 0 0 1-108.315-204.05 305.16 305.16 0 0 1 67.995-225.45A298.16 298.16 0 0 1 400.9 168.656m723.86 69.62c5.83-1.26 9.61 2.177 9.93 7.794.82 14.23.35 29.046.3 43.291q-.315 45.527.12 91.055c27.64-34.604 62.16-51.499 107.19-35.444 39.59 14.12 39.2 64.007 39.1 99.382l-.18 50.042c-.03 11.933-.68 27.688 4.22 38.604 2.8 6.231 5.41 7.246 11.49 9.494l-.14 15.832c-30.82-.133-61.65-.092-92.47.125l-.02-14.51c11.85-6.174 14.33-10.409 16.11-23.892 1.84-13.851 1.15-28.102 1.11-42.075.03-20.973-.14-41.949-.52-62.921-3.99-50.907-78.39-44.007-86.06-1.5-1.03 5.735-.64 18.218-.39 24.37 1.09 27.881-2.07 56.469 2.36 84.036 1.68 10.31 4.98 14.906 13.47 20.545l.07 15.914-94.52-.102.08-15.581c15.28-7.085 17.27-18.48 17.42-34.406.67-72.206.06-144.527-.33-216.741-.07-13.122-.49-17.82-13.39-21.861l.09-19.822a285.4 285.4 0 0 0 64.96-11.629m-199.903 14.995a188.3 188.3 0 0 1 82.803 16.826c1.5 17.591.95 43.721 1.17 62.005l-14.658-.242c-14.924-24.544-33.042-45.091-63.246-47.268-26.12-1.883-53.051 9.296-54.32 39.046-.785 23.784 28.246 38.529 46.862 46.985 51.87 23.559 108.572 38.181 103.882 107.749-4.74 70.396-64.908 89.041-126.335 84.402-29.271-2.198-50.497-8.319-77.798-17.306a3594 3594 0 0 0-.997-73.858l13.886.023c19.666 35.427 39.794 59.403 82.891 59.742 26.324.207 51.424-15.64 50.695-44.153-.902-35.263-47.83-46.104-73.181-58.349-36.3-16.453-74.096-35.537-75.581-81.02-1.598-24.184 5.858-45.345 22.232-63.209 22.372-24.406 50.203-29.827 81.695-31.373m637.413-8.343c17.16-1.36 38.31 1.869 54.59 7.479l.12 39.427c-6.18 1.133-12.82 2.043-19.06 3.008-5.37-12.868-14.25-26.157-29.35-26.403-36.65-.591-33 51.645-32.83 74.248l52.7.231.15 30.636-49.19-.063c-1.92 44.585-.04 92.93.33 137.802.11 14.095 3.4 24.345 17.47 29.276l2.9.639c2.94 3.292 1.78 12.435 1.6 17.191-33.62-.173-67.25-.158-100.88.048l-.11-17.426c11.19-4.223 17.26-8.185 18.6-20.737 1.84-17.282 1.13-35.57 1.12-52.93.08-31.252-.03-62.506-.31-93.761-11.22-.168-22.75-.062-34-.087l-.01-30.744 34.71.058c1.64-59.561 16.49-93.128 81.45-97.892"/><path fill="#fff" d="M1661.55 282.53c8.32.331 16.94.933 25.29 1.396l.03 58.959q28.92-.212 57.84.066l.1 30.667-57.81-.181c-.66 22.83-2.85 120.097 3.33 136.215 2.02 5.262 5.21 8.183 10.48 10.266 15.09 5.975 33.43-1.423 47.17-7.71 6.2 15.718 3.29 19.838-7.67 31.298-17.31 13.201-29.05 15.503-50.17 16.555-68.7 3.423-61.62-52.284-61.63-100.517l-.02-86.038-27.58-.029c.24-9.456-.07-19.807-.17-29.33 36.61-10.953 48.35-25.863 60.81-61.617m-258.29 59.13c.32.121.66.2.97.36 2.96 1.554 4.37 5.204 4.95 8.316 2.03 10.969.9 23.551.91 34.761.02 26.688-3.33 129.246 3.82 145.776 2.81 6.515 7.92 8.577 14.05 11.183l-.1 16.343-87.29-.063c-4.69-.037-2.79.684-6.29-1.32-1.86-4.171-.93-9.566-.65-14.364 5.85-4.071 13.26-10.668 14.15-18.397 4.7-41.262 1.97-84.976 1.72-126.584-.09-15.137-3.81-20.319-17.85-23.411.19-6.162.65-12.614.99-18.797 23.79-4.085 46.98-9.043 70.62-13.803m-30.22-93.622c18.51-3.447 36.35 8.664 39.98 27.147 3.62 18.482-8.31 36.435-26.76 40.239-18.7 3.856-36.95-8.283-40.63-27.017-3.67-18.737 8.64-36.873 27.41-40.369M884.141 626.314h-21.758v56.196h-17.968v-56.196h-21.757v-13.476h61.483zm63.589 29.946q0 12.961-7.581 20.448-7.533 7.44-21.196 7.44t-21.243-7.44q-7.533-7.487-7.533-20.448 0-13.054 7.58-20.494 7.627-7.44 21.196-7.44 13.757 0 21.243 7.487 7.534 7.487 7.534 20.447m-20.729 12.774q1.638-2.012 2.433-4.819.843-2.854.843-7.861 0-4.632-.843-7.767-.842-3.135-2.339-5.007-1.497-1.919-3.603-2.714t-4.539-.795-4.351.655q-1.872.654-3.603 2.62-1.544 1.825-2.48 5.007-.89 3.182-.889 8.001 0 4.305.795 7.486.796 3.135 2.34 5.054 1.497 1.824 3.556 2.667 2.106.842 4.773.842a12.6 12.6 0 0 0 4.351-.749q2.106-.795 3.556-2.62m83.899 7.44c0 4.929-.7 9.077-2.11 12.446-1.4 3.369-3.37 6.005-5.89 7.908q-3.795 2.901-9.175 4.164-5.334 1.31-12.072 1.31-5.475 0-10.809-.655-5.287-.655-9.171-1.591v-13.148h2.059q3.088 1.216 7.533 2.199 4.445 1.03 7.955 1.03 4.679 0 7.58-.889 2.947-.843 4.492-2.433 1.45-1.499 2.105-3.837.655-2.34.655-5.615v-.983a25 25 0 0 1-6.737 3.931q-3.697 1.45-8.236 1.45-11.042 0-17.031-6.644-5.99-6.644-5.99-20.214 0-6.504 1.825-11.229 1.825-4.726 5.147-8.236 3.089-3.275 7.58-5.1 4.539-1.824 9.265-1.825 4.258 0 7.72 1.03 3.51.983 6.364 2.76l.608-2.339h16.333zm-16.848-10.528v-23.817q-1.45-.608-3.556-.935-2.105-.375-3.79-.375-6.644 0-9.966 3.837-3.322 3.79-3.322 10.622 0 7.58 2.807 10.574 2.854 2.995 8.423 2.995a15.9 15.9 0 0 0 4.959-.795 19 19 0 0 0 4.445-2.106m84.508-6.598H1040q.375 6.177 4.68 9.452c2.9 2.184 7.16 3.276 12.77 3.276 3.56 0 7.01-.64 10.34-1.919 3.34-1.279 5.98-2.651 7.91-4.117h1.87v13.522c-3.8 1.529-7.39 2.636-10.76 3.322s-7.09 1.03-11.18 1.03q-15.81 0-24.24-7.113c-5.61-4.741-8.42-11.495-8.42-20.26q0-13.008 7.95-20.588 8.01-7.627 21.9-7.627c8.55 0 14.97 2.168 19.28 6.504 4.3 4.305 6.46 10.512 6.46 18.623zm-16.75-9.872c-.1-3.525-.97-6.177-2.62-7.955-1.66-1.778-4.23-2.667-7.73-2.667-3.24 0-5.91.842-8 2.527q-3.135 2.526-3.51 8.095zm62.23 32.566a45 45 0 0 1-5.76 1.076q-3.045.421-7.44.421-9.825 0-14.64-3.977c-3.18-2.651-4.78-7.19-4.78-13.616v-24.565h-6.92v-11.417h6.92v-15.02h16.85v15.02h15.77v11.417h-15.77v18.623c0 1.84.01 3.446.05 4.819.03 1.372.28 2.605.74 3.696.44 1.092 1.21 1.966 2.3 2.621q1.68.936 4.86.936 1.32 0 3.42-.562c1.43-.374 2.43-.717 2.99-1.029h1.41zm62.88.468h-16.93v-26.063q0-3.181-.33-6.316c-.22-2.122-.59-3.681-1.12-4.679a5.6 5.6 0 0 0-2.77-2.527c-1.18-.53-2.85-.796-5-.796q-2.295 0-4.68.749-2.34.749-5.1 2.386v37.246h-16.85v-72.807h16.85v26.063q4.485-3.51 8.61-5.381c2.77-1.248 5.85-1.872 9.22-1.872 5.67 0 10.1 1.654 13.28 4.96 3.22 3.307 4.82 8.251 4.82 14.833zm67.29-23.162h-38.56q.375 6.177 4.68 9.452 4.35 3.276 12.78 3.276c3.55 0 7-.64 10.34-1.919s5.97-2.651 7.91-4.117h1.87v13.522q-5.715 2.293-10.77 3.322c-3.36.686-7.09 1.03-11.18 1.03q-15.81 0-24.24-7.113c-5.61-4.741-8.42-11.495-8.42-20.26 0-8.672 2.65-15.535 7.96-20.588 5.33-5.085 12.63-7.627 21.89-7.627 8.55 0 14.98 2.168 19.28 6.504 4.31 4.305 6.46 10.512 6.46 18.623zm-16.75-9.872c-.1-3.525-.97-6.177-2.62-7.955-1.66-1.778-4.23-2.667-7.72-2.667-3.25 0-5.91.842-8 2.527q-3.135 2.526-3.51 8.095zm66.72-3.463h-1.5c-.71-.25-1.87-.437-3.46-.561s-2.91-.188-3.98-.188q-3.6 0-6.36.468t-5.94 1.591v35.187h-16.85v-52.546h16.85v7.72c3.71-3.181 6.94-5.287 9.68-6.316 2.75-1.061 5.28-1.591 7.58-1.591.6 0 1.27.015 2.02.046.75.032 1.4.078 1.96.141zm126.1-16.049L1414 682.51h-17.87l-10.72-35.421-10.53 35.421h-18.11l-16.14-52.546h17.69l8.98 36.216 11.23-36.216h14.93l10.67 36.216 8.84-36.216zm61.81 29.384h-38.55q.375 6.177 4.68 9.452c2.9 2.184 7.16 3.276 12.77 3.276 3.56 0 7-.64 10.34-1.919s5.98-2.651 7.91-4.117h1.87v13.522c-3.8 1.529-7.39 2.636-10.76 3.322s-7.1 1.03-11.18 1.03q-15.825 0-24.24-7.113c-5.62-4.741-8.42-11.495-8.42-20.26q0-13.008 7.95-20.588c5.34-5.085 12.63-7.627 21.9-7.627 8.55 0 14.97 2.168 19.28 6.504q6.45 6.457 6.45 18.623zm-16.75-9.872c-.09-3.525-.96-6.177-2.62-7.955-1.65-1.778-4.22-2.667-7.72-2.667-3.24 0-5.91.842-8 2.527q-3.135 2.526-3.51 8.095zm99.48-3.463h-1.5c-.71-.25-1.87-.437-3.46-.561s-2.92-.188-3.98-.188q-3.6 0-6.36.468t-5.94 1.591v35.187h-16.85v-52.546h16.85v7.72c3.71-3.181 6.94-5.287 9.68-6.316 2.75-1.061 5.27-1.591 7.58-1.591q.9 0 2.01.046c.75.032 1.41.078 1.97.141zm26.39 36.497h-16.84v-52.546h16.84zm.47-60.033h-17.78v-12.774h17.78zm61.11 43.375c0 5.428-2.44 9.811-7.3 13.149q-7.305 4.959-19.98 4.959c-4.68 0-8.92-.436-12.73-1.31-3.8-.873-6.86-1.84-9.17-2.901v-13.85h1.54c.85.593 1.81 1.248 2.9 1.965 1.13.687 2.7 1.435 4.73 2.246q2.625 1.077 5.94 1.872c2.22.499 4.59.749 7.12.749 3.3 0 5.75-.359 7.34-1.077 1.59-.748 2.39-1.84 2.39-3.275q0-1.918-1.41-2.761c-.93-.592-2.71-1.154-5.33-1.684q-1.875-.421-5.1-.889c-2.12-.343-4.06-.749-5.8-1.217-4.77-1.247-8.32-3.181-10.62-5.802-2.31-2.651-3.47-5.942-3.47-9.873 0-5.053 2.39-9.249 7.16-12.586q7.215-5.054 19.65-5.054c3.94 0 7.69.406 11.28 1.217 3.62.78 6.44 1.622 8.47 2.527v13.288h-1.45c-2.5-1.716-5.35-3.104-8.56-4.164a29.7 29.7 0 0 0-9.69-1.638c-2.71 0-5.01.374-6.88 1.123q-2.76 1.123-2.76 3.182c0 1.248.42 2.199 1.27 2.854q1.26.982 5.94 1.965 2.565.515 5.52 1.03c2 .312 3.99.717 5.99 1.216 4.43 1.154 7.7 2.979 9.83 5.475q3.18 3.696 3.18 9.264m62.98-6.504h-38.56q.375 6.177 4.68 9.452c2.9 2.184 7.16 3.276 12.77 3.276q5.34 0 10.35-1.919c3.33-1.279 5.97-2.651 7.9-4.117h1.87v13.522c-3.8 1.529-7.39 2.636-10.76 3.322s-7.09 1.03-11.18 1.03q-15.81 0-24.24-7.113c-5.61-4.741-8.42-11.495-8.42-20.26q0-13.008 7.95-20.588 8.01-7.627 21.9-7.627c8.55 0 14.98 2.168 19.28 6.504 4.3 4.305 6.46 10.512 6.46 18.623zm-16.75-9.872c-.1-3.525-.97-6.177-2.62-7.955-1.66-1.778-4.23-2.667-7.72-2.667q-4.875 0-8.01 2.527-3.135 2.526-3.51 8.095z"/></svg>