<svg width="941" height="941" viewBox="0 0 941 941" fill="none" xmlns="http://www.w3.org/2000/svg">
<path d="M456.99 103.307C457.179 103.28 457.37 103.251 457.559 103.224C501.387 99.5638 544.836 113.093 578.654 140.956C616.237 171.77 639.797 216.448 643.994 264.868C647.911 306.747 635.562 349.769 608.34 382.116C586.192 408.503 554.437 424.972 520.107 427.872C484.22 430.683 448.506 420.276 421.242 396.445C371.703 353.145 358.999 272.939 404.051 221.827C422.652 200.875 448.821 188.181 476.79 186.542C503.142 185.059 529.893 193.927 549.468 211.772C565.818 226.926 575.464 247.965 576.277 270.243C577.676 305.501 558.368 334.31 523.97 343.745C519.451 344.939 514.475 345.97 509.779 345.989C483.478 346.096 451.198 324.89 456.057 295.325C457.49 286.604 460.273 280.851 466.545 274.739C471.681 269.733 477.955 267.151 485.087 267.454C493.223 267.802 499.688 273.465 496.884 281.88C495.004 286.275 489.649 290.319 489.358 295.311C488.69 306.744 500.112 314.321 510.487 314.572C519.038 314.78 526.632 310.356 532.375 304.509C550.801 285.75 545.356 255.02 527.695 237.817C515.29 225.722 499.72 221.017 482.781 221.124C463.561 221.21 445.161 228.92 431.621 242.562C414.974 259.463 408.538 279.686 408.57 302.948C408.953 312.041 409.908 318.449 412.736 327.241C420.268 350.673 436.908 370.091 458.912 381.121C514.823 409.583 576.757 381.477 603.781 327.407C618.76 296.944 621.002 261.773 610.013 229.655C597.979 194.092 572.315 164.763 538.663 148.115C413.892 87.1366 286.971 219.089 331.516 344.252C350.023 395.972 392.797 435.275 445.896 449.349C452.79 451.215 459.794 452.644 466.867 453.625C471.505 454.282 480.66 454.226 484.227 455.906C485.688 458.888 485.61 457.458 485.075 460.272C483.542 461.921 481.265 462.752 479.044 462.774C437.457 463.155 392.895 447.426 361.342 421.706C324.647 391.372 301.479 347.724 296.915 300.335C291.911 252.023 306.48 203.722 337.359 166.234C367.366 130.289 410.37 107.668 456.99 103.307Z" fill="white"/>
<path d="M358.53 497.637C362.568 496.763 365.195 499.147 365.417 503.042C365.982 512.912 365.657 523.188 365.625 533.068C365.479 554.118 365.507 575.171 365.706 596.221C384.875 572.22 408.815 560.503 440.047 571.638C467.51 581.431 467.239 616.031 467.168 640.566L467.044 675.274C467.022 683.551 466.574 694.478 469.971 702.049C471.91 706.371 473.722 707.074 477.937 708.633L477.844 719.614C456.466 719.522 435.087 719.551 413.709 719.701L413.694 709.637C421.909 705.355 423.63 702.417 424.869 693.066C426.141 683.46 425.663 673.575 425.637 663.885C425.659 649.338 425.538 634.79 425.275 620.244C422.511 584.937 370.905 589.722 365.591 619.204C364.874 623.182 365.147 631.839 365.316 636.106C366.076 655.444 363.878 675.272 366.956 694.391C368.122 701.542 370.408 704.729 376.297 708.64L376.346 719.678L310.79 719.607L310.841 708.801C321.445 703.887 322.824 695.984 322.927 684.938C323.389 634.858 322.969 584.698 322.7 534.612C322.651 525.511 322.356 522.253 313.408 519.45L313.473 505.702C328.753 504.765 343.873 502.058 358.53 497.637Z" fill="white"/>
<path d="M219.88 508.037C239.66 507.526 259.297 511.516 277.309 519.707C278.351 531.908 277.968 550.03 278.122 562.712L267.955 562.544C257.604 545.521 245.038 531.27 224.089 529.76C205.974 528.454 187.295 536.207 186.415 556.841C185.87 573.337 206.005 583.564 218.917 589.429C254.892 605.768 294.218 615.91 290.967 664.161C287.677 712.985 245.948 725.916 203.344 722.699C183.042 721.174 168.321 716.93 149.386 710.696C149.331 693.62 149.1 676.543 148.694 659.471L158.325 659.486C171.965 684.058 185.925 700.686 215.816 700.922C234.073 701.065 251.482 690.074 250.976 670.298C250.351 645.841 217.803 638.322 200.22 629.829C175.044 618.418 148.83 605.182 147.8 573.636C146.691 556.863 151.863 542.186 163.219 529.797C178.735 512.869 198.039 509.109 219.88 508.037Z" fill="white"/>
<path d="M661.969 502.251C673.873 501.307 688.541 503.547 699.836 507.438L699.916 534.783C695.628 535.569 691.028 536.2 686.696 536.869C682.97 527.944 676.816 518.728 666.342 518.557C640.925 518.147 643.454 554.376 643.569 570.053L680.123 570.213L680.223 591.461L646.112 591.418C644.779 622.341 646.084 655.872 646.337 686.994C646.416 696.769 648.698 703.878 658.452 707.298L660.466 707.742C662.505 710.025 661.703 716.366 661.579 719.665C638.256 719.545 614.933 719.555 591.61 719.698L591.535 707.612C599.293 704.683 603.506 701.935 604.432 693.23C605.708 681.243 605.214 668.559 605.209 656.519C605.261 634.843 605.189 613.166 604.995 591.489C597.212 591.372 589.216 591.446 581.413 591.428L581.407 570.105L605.481 570.146C606.615 528.836 616.918 505.555 661.969 502.251Z" fill="white"/>
<path d="M730.831 528.33C736.601 528.56 742.58 528.977 748.368 529.298L748.387 570.19C761.761 570.092 775.134 570.108 788.508 570.237L788.577 591.506L748.479 591.381C748.021 607.215 746.501 674.676 750.79 685.855C752.191 689.505 754.403 691.53 758.056 692.975C768.527 697.119 781.243 691.989 790.772 687.628C795.077 698.529 793.057 701.387 785.457 709.335C773.451 718.491 765.303 720.088 750.657 720.818C703.013 723.191 707.922 684.555 707.911 651.102L707.902 591.428L688.771 591.408C688.937 584.85 688.72 577.67 688.655 571.066C714.046 563.469 722.186 553.128 730.831 528.33Z" fill="white"/>
<path d="M551.685 569.341C551.909 569.425 552.146 569.48 552.359 569.591C554.414 570.669 555.389 573.2 555.79 575.359C557.197 582.966 556.415 591.693 556.422 599.467C556.44 617.977 554.112 689.109 559.071 700.574C561.024 705.092 564.567 706.522 568.818 708.33L568.747 719.665L508.203 719.621C504.952 719.595 506.274 720.095 503.847 718.705C502.557 715.813 503.197 712.07 503.396 708.743C507.452 705.92 512.593 701.344 513.204 695.983C516.468 667.365 514.574 637.047 514.402 608.189C514.34 597.69 511.758 594.095 502.016 591.951C502.154 587.677 502.467 583.203 502.707 578.914C519.204 576.081 535.29 572.642 551.685 569.341Z" fill="white"/>
<path d="M530.726 504.408C543.568 502.016 555.94 510.417 558.455 523.236C560.969 536.054 552.689 548.506 539.895 551.144C526.926 553.819 514.266 545.4 511.717 532.406C509.167 519.411 517.708 506.832 530.726 504.408Z" fill="white"/>
<path d="M199.087 785.862H183.996V824.838H171.534V785.862H156.444V776.516H199.087V785.862ZM243.19 806.632C243.19 812.625 241.437 817.352 237.932 820.814C234.449 824.254 229.549 825.974 223.231 825.974C216.914 825.974 212.003 824.254 208.498 820.814C205.015 817.352 203.273 812.625 203.273 806.632C203.273 800.596 205.025 795.858 208.53 792.418C212.057 788.978 216.957 787.258 223.231 787.258C229.592 787.258 234.503 788.989 237.965 792.45C241.448 795.912 243.19 800.639 243.19 806.632ZM228.813 815.492C229.57 814.561 230.133 813.447 230.501 812.149C230.89 810.829 231.085 809.012 231.085 806.697C231.085 804.555 230.89 802.759 230.501 801.31C230.111 799.86 229.57 798.703 228.878 797.837C228.186 796.95 227.353 796.323 226.379 795.955C225.406 795.587 224.356 795.403 223.231 795.403C222.106 795.403 221.1 795.555 220.213 795.858C219.348 796.161 218.515 796.766 217.714 797.675C217 798.519 216.427 799.676 215.994 801.148C215.583 802.619 215.378 804.469 215.378 806.697C215.378 808.687 215.562 810.418 215.929 811.889C216.297 813.339 216.838 814.507 217.552 815.394C218.244 816.238 219.067 816.855 220.019 817.244C220.992 817.634 222.095 817.828 223.329 817.828C224.389 817.828 225.395 817.655 226.347 817.309C227.32 816.941 228.143 816.335 228.813 815.492ZM287.001 820.652C287.001 824.07 286.514 826.948 285.541 829.284C284.567 831.621 283.204 833.449 281.452 834.769C279.699 836.11 277.579 837.073 275.091 837.657C272.624 838.263 269.833 838.566 266.718 838.566C264.187 838.566 261.688 838.414 259.221 838.111C256.777 837.808 254.656 837.441 252.861 837.008V827.889H254.289C255.717 828.451 257.458 828.96 259.513 829.414C261.569 829.89 263.408 830.128 265.03 830.128C267.194 830.128 268.946 829.922 270.288 829.511C271.651 829.122 272.689 828.559 273.403 827.824C274.074 827.131 274.561 826.244 274.864 825.163C275.167 824.081 275.318 822.783 275.318 821.268V820.587C273.912 821.733 272.354 822.642 270.645 823.313C268.936 823.983 267.032 824.319 264.933 824.319C259.827 824.319 255.89 822.783 253.12 819.711C250.351 816.638 248.966 811.965 248.966 805.691C248.966 802.684 249.388 800.087 250.232 797.902C251.076 795.717 252.266 793.813 253.802 792.191C255.23 790.676 256.982 789.497 259.059 788.653C261.158 787.81 263.3 787.388 265.485 787.388C267.454 787.388 269.238 787.626 270.839 788.102C272.462 788.556 273.933 789.194 275.253 790.016L275.675 788.394H287.001V820.652ZM275.318 813.35V796.831C274.647 796.55 273.825 796.334 272.852 796.182C271.878 796.009 271.002 795.923 270.223 795.923C267.151 795.923 264.847 796.81 263.31 798.584C261.774 800.336 261.006 802.792 261.006 805.951C261.006 809.455 261.655 811.9 262.953 813.285C264.273 814.67 266.22 815.362 268.795 815.362C269.963 815.362 271.11 815.178 272.235 814.81C273.36 814.442 274.388 813.956 275.318 813.35ZM333.928 808.774H307.187C307.36 811.63 308.441 813.815 310.432 815.329C312.444 816.844 315.397 817.601 319.291 817.601C321.758 817.601 324.149 817.158 326.463 816.271C328.778 815.384 330.607 814.432 331.948 813.415H333.246V822.794C330.607 823.854 328.119 824.622 325.782 825.098C323.445 825.574 320.86 825.812 318.026 825.812C310.713 825.812 305.11 824.167 301.215 820.879C297.321 817.59 295.374 812.906 295.374 806.827C295.374 800.812 297.213 796.053 300.891 792.548C304.59 789.021 309.653 787.258 316.079 787.258C322.007 787.258 326.463 788.761 329.449 791.769C332.435 794.754 333.928 799.06 333.928 804.685V808.774ZM322.31 801.926C322.245 799.482 321.639 797.643 320.492 796.409C319.346 795.176 317.561 794.56 315.137 794.56C312.887 794.56 311.038 795.144 309.588 796.312C308.138 797.48 307.327 799.352 307.154 801.926H322.31ZM365.472 824.514C364.217 824.838 362.886 825.087 361.48 825.26C360.074 825.455 358.354 825.552 356.32 825.552C351.777 825.552 348.391 824.633 346.162 822.794C343.955 820.955 342.852 817.807 342.852 813.35V796.312H338.049V788.394H342.852V777.976H354.535V788.394H365.472V796.312H354.535V809.228C354.535 810.505 354.546 811.619 354.568 812.571C354.589 813.523 354.762 814.377 355.087 815.135C355.39 815.892 355.92 816.498 356.677 816.952C357.456 817.385 358.581 817.601 360.052 817.601C360.658 817.601 361.448 817.471 362.421 817.212C363.416 816.952 364.109 816.714 364.498 816.498H365.472V824.514ZM409.088 824.838H397.34V806.762C397.34 805.291 397.265 803.83 397.113 802.381C396.962 800.91 396.702 799.828 396.334 799.136C395.901 798.335 395.263 797.751 394.419 797.383C393.597 797.015 392.44 796.831 390.947 796.831C389.887 796.831 388.805 797.004 387.702 797.351C386.62 797.697 385.441 798.248 384.164 799.006V824.838H372.481V774.342H384.164V792.418C386.241 790.795 388.232 789.551 390.136 788.686C392.061 787.82 394.192 787.388 396.529 787.388C400.467 787.388 403.539 788.534 405.745 790.828C407.974 793.121 409.088 796.55 409.088 801.115V824.838ZM455.755 808.774H429.014C429.187 811.63 430.269 813.815 432.259 815.329C434.271 816.844 437.225 817.601 441.119 817.601C443.585 817.601 445.976 817.158 448.291 816.271C450.606 815.384 452.434 814.432 453.776 813.415H455.074V822.794C452.434 823.854 449.946 824.622 447.61 825.098C445.273 825.574 442.688 825.812 439.853 825.812C432.541 825.812 426.937 824.167 423.043 820.879C419.148 817.59 417.201 812.906 417.201 806.827C417.201 800.812 419.04 796.053 422.718 792.548C426.418 789.021 431.48 787.258 437.906 787.258C443.834 787.258 448.291 788.761 451.277 791.769C454.262 794.754 455.755 799.06 455.755 804.685V808.774ZM444.137 801.926C444.072 799.482 443.466 797.643 442.32 796.409C441.173 795.176 439.388 794.56 436.965 794.56C434.715 794.56 432.865 795.144 431.416 796.312C429.966 797.48 429.155 799.352 428.982 801.926H444.137ZM490.415 799.525H489.376C488.879 799.352 488.078 799.222 486.975 799.136C485.871 799.049 484.952 799.006 484.216 799.006C482.55 799.006 481.079 799.114 479.803 799.33C478.526 799.547 477.152 799.914 475.681 800.434V824.838H463.998V788.394H475.681V793.748C478.256 791.542 480.495 790.081 482.399 789.367C484.303 788.632 486.055 788.264 487.656 788.264C488.067 788.264 488.532 788.275 489.052 788.296C489.571 788.318 490.025 788.35 490.415 788.394V799.525ZM577.875 788.394L566.581 824.838H554.184L546.753 800.271L539.451 824.838H526.892L515.695 788.394H527.962L534.193 813.512L541.982 788.394H552.334L559.734 813.512L565.867 788.394H577.875ZM620.745 808.774H594.004C594.177 811.63 595.259 813.815 597.249 815.329C599.261 816.844 602.214 817.601 606.109 817.601C608.575 817.601 610.966 817.158 613.281 816.271C615.596 815.384 617.424 814.432 618.765 813.415H620.063V822.794C617.424 823.854 614.936 824.622 612.599 825.098C610.263 825.574 607.677 825.812 604.843 825.812C597.53 825.812 591.927 824.167 588.032 820.879C584.138 817.59 582.191 812.906 582.191 806.827C582.191 800.812 584.03 796.053 587.708 792.548C591.408 789.021 596.47 787.258 602.896 787.258C608.824 787.258 613.281 788.761 616.266 791.769C619.252 794.754 620.745 799.06 620.745 804.685V808.774ZM609.127 801.926C609.062 799.482 608.456 797.643 607.309 796.409C606.163 795.176 604.378 794.56 601.955 794.56C599.705 794.56 597.855 795.144 596.405 796.312C594.956 797.48 594.144 799.352 593.971 801.926H609.127ZM678.121 799.525H677.083C676.585 799.352 675.785 799.222 674.681 799.136C673.578 799.049 672.658 799.006 671.923 799.006C670.257 799.006 668.786 799.114 667.509 799.33C666.233 799.547 664.859 799.914 663.388 800.434V824.838H651.705V788.394H663.388V793.748C665.962 791.542 668.202 790.081 670.105 789.367C672.009 788.632 673.762 788.264 675.363 788.264C675.774 788.264 676.239 788.275 676.758 788.296C677.277 788.318 677.732 788.35 678.121 788.394V799.525ZM696.425 824.838H684.742V788.394H696.425V824.838ZM696.749 783.201H684.417V774.342H696.749V783.201ZM739.132 813.285C739.132 817.049 737.445 820.089 734.07 822.404C730.695 824.697 726.076 825.844 720.212 825.844C716.967 825.844 714.025 825.541 711.385 824.935C708.746 824.33 706.626 823.659 705.025 822.923V813.317H706.095C706.68 813.728 707.35 814.183 708.108 814.68C708.886 815.156 709.979 815.676 711.385 816.238C712.597 816.736 713.971 817.168 715.507 817.536C717.043 817.882 718.687 818.055 720.44 818.055C722.733 818.055 724.431 817.807 725.535 817.309C726.638 816.79 727.19 816.033 727.19 815.037C727.19 814.15 726.865 813.512 726.216 813.123C725.567 812.712 724.334 812.322 722.517 811.954C721.651 811.76 720.472 811.554 718.979 811.338C717.508 811.1 716.167 810.818 714.955 810.494C711.645 809.629 709.189 808.287 707.588 806.47C705.987 804.631 705.187 802.348 705.187 799.622C705.187 796.117 706.842 793.207 710.152 790.893C713.484 788.556 718.027 787.388 723.782 787.388C726.508 787.388 729.115 787.669 731.603 788.231C734.113 788.772 736.071 789.356 737.477 789.984V799.2H736.471C734.74 798.01 732.761 797.048 730.532 796.312C728.326 795.555 726.086 795.176 723.815 795.176C721.932 795.176 720.342 795.436 719.044 795.955C717.768 796.474 717.129 797.21 717.129 798.162C717.129 799.027 717.421 799.687 718.006 800.142C718.59 800.596 719.964 801.05 722.127 801.505C723.317 801.743 724.594 801.981 725.957 802.219C727.341 802.435 728.726 802.716 730.11 803.062C733.183 803.863 735.454 805.128 736.926 806.859C738.397 808.568 739.132 810.71 739.132 813.285ZM782.814 808.774H756.073C756.246 811.63 757.328 813.815 759.318 815.329C761.33 816.844 764.283 817.601 768.178 817.601C770.644 817.601 773.035 817.158 775.35 816.271C777.665 815.384 779.493 814.432 780.834 813.415H782.132V822.794C779.493 823.854 777.005 824.622 774.668 825.098C772.332 825.574 769.746 825.812 766.912 825.812C759.599 825.812 753.996 824.167 750.101 820.879C746.207 817.59 744.26 812.906 744.26 806.827C744.26 800.812 746.099 796.053 749.777 792.548C753.476 789.021 758.539 787.258 764.965 787.258C770.893 787.258 775.35 788.761 778.335 791.769C781.321 794.754 782.814 799.06 782.814 804.685V808.774ZM771.196 801.926C771.131 799.482 770.525 797.643 769.378 796.409C768.232 795.176 766.447 794.56 764.024 794.56C761.774 794.56 759.924 795.144 758.474 796.312C757.025 797.48 756.213 799.352 756.04 801.926H771.196Z" fill="white"/>
</svg>
