<svg xmlns="http://www.w3.org/2000/svg" width="941" height="941" fill="none"><path fill="#fff" d="m456.99 103.307.569-.083c43.828-3.66 87.277 9.869 121.095 37.732a180.38 180.38 0 0 1 65.34 123.912c3.917 41.879-8.432 84.901-35.654 117.248a129.42 129.42 0 0 1-88.233 45.756c-35.887 2.811-71.601-7.596-98.865-31.427-49.539-43.3-62.243-123.506-17.191-174.618a105.52 105.52 0 0 1 72.739-35.285c26.352-1.483 53.103 7.385 72.678 25.23a83.9 83.9 0 0 1 26.809 58.471c1.399 35.258-17.909 64.067-52.307 73.502-4.519 1.194-9.495 2.225-14.191 2.244-26.301.107-58.581-21.099-53.722-50.664 1.433-8.721 4.216-14.474 10.488-20.586 5.136-5.006 11.41-7.588 18.542-7.285 8.136.348 14.601 6.011 11.797 14.426-1.88 4.395-7.235 8.439-7.526 13.431-.668 11.433 10.754 19.01 21.129 19.261 8.551.208 16.145-4.216 21.888-10.063 18.426-18.759 12.981-49.489-4.68-66.692-12.405-12.095-27.975-16.8-44.914-16.693a72.54 72.54 0 0 0-51.16 21.438c-16.647 16.901-23.083 37.124-23.051 60.386.383 9.093 1.338 15.501 4.166 24.293a91.64 91.64 0 0 0 46.176 53.88c55.911 28.462 117.845.356 144.869-53.714a127.8 127.8 0 0 0 6.232-97.752 141.62 141.62 0 0 0-71.35-81.54c-124.771-60.978-251.692 70.974-207.147 196.137a166.9 166.9 0 0 0 114.38 105.097 169 169 0 0 0 20.971 4.276c4.638.657 13.793.601 17.36 2.281 1.461 2.982 1.383 1.552.848 4.366-1.533 1.649-3.81 2.48-6.031 2.502-41.587.381-86.149-15.348-117.702-41.068a179.84 179.84 0 0 1-64.427-121.371 181.5 181.5 0 0 1 40.444-134.101 177.36 177.36 0 0 1 119.631-62.927m-98.46 394.33c4.038-.874 6.665 1.51 6.887 5.405.565 9.87.24 20.146.208 30.026q-.218 31.576.081 63.153c19.169-24.001 43.109-35.718 74.341-24.583 27.463 9.793 27.192 44.393 27.121 68.928l-.124 34.708c-.022 8.277-.47 19.204 2.927 26.775 1.939 4.322 3.751 5.025 7.966 6.584l-.093 10.981a5666 5666 0 0 0-64.135.087l-.015-10.064c8.215-4.282 9.936-7.22 11.175-16.571 1.272-9.606.794-19.491.768-29.181q.033-21.821-.362-43.641c-2.764-35.307-54.37-30.522-59.684-1.04-.717 3.978-.444 12.635-.275 16.902.76 19.338-1.438 39.166 1.64 58.285 1.166 7.151 3.452 10.338 9.341 14.249l.049 11.038-65.556-.071.051-10.806c10.604-4.914 11.983-12.817 12.086-23.863.462-50.08.042-100.24-.227-150.326-.049-9.101-.344-12.359-9.292-15.162l.065-13.748a198 198 0 0 0 45.057-8.065m-138.65 10.4a130.6 130.6 0 0 1 57.429 11.67c1.042 12.201.659 30.323.813 43.005l-10.167-.168c-10.351-17.023-22.917-31.274-43.866-32.784-18.115-1.306-36.794 6.447-37.674 27.081-.545 16.496 19.59 26.723 32.502 32.588 35.975 16.339 75.301 26.481 72.05 74.732-3.29 48.824-45.019 61.755-87.623 58.538-20.302-1.525-35.023-5.769-53.958-12.003a2492 2492 0 0 0-.692-51.225l9.631.015c13.64 24.572 27.6 41.2 57.491 41.436 18.257.143 35.666-10.848 35.16-30.624-.625-24.457-33.173-31.976-50.756-40.469-25.176-11.411-51.39-24.647-52.42-56.193-1.109-16.773 4.063-31.45 15.419-43.839 15.516-16.928 34.82-20.688 56.661-21.76m442.089-5.786c11.904-.944 26.572 1.296 37.867 5.187l.08 27.345c-4.288.786-8.888 1.417-13.22 2.086-3.726-8.925-9.88-18.141-20.354-18.312-25.417-.41-22.888 35.819-22.773 51.496l36.554.16.1 21.248-34.111-.043c-1.333 30.923-.028 64.454.225 95.576.079 9.775 2.361 16.884 12.115 20.304l2.014.444c2.039 2.283 1.237 8.624 1.113 11.923q-34.984-.18-69.969.033l-.075-12.086c7.758-2.929 11.971-5.677 12.897-14.382 1.276-11.987.782-24.671.777-36.711q.078-32.514-.214-65.03c-7.783-.117-15.779-.043-23.582-.061l-.006-21.323 24.074.041c1.134-41.31 11.437-64.591 56.488-67.895"/><path fill="#fff" d="M730.831 528.33c5.77.23 11.749.647 17.537.968l.019 40.892a2364 2364 0 0 1 40.121.047l.069 21.269-40.098-.125c-.458 15.834-1.978 83.295 2.311 94.474 1.401 3.65 3.613 5.675 7.266 7.12 10.471 4.144 23.187-.986 32.716-5.347 4.305 10.901 2.285 13.759-5.315 21.707-12.006 9.156-20.154 10.753-34.8 11.483-47.644 2.373-42.735-36.263-42.746-69.716l-.009-59.674-19.131-.02c.166-6.558-.051-13.738-.116-20.342 25.391-7.597 33.531-17.938 42.176-42.736m-179.146 41.011c.224.084.461.139.674.25 2.055 1.078 3.03 3.609 3.431 5.768 1.407 7.607.625 16.334.632 24.108.018 18.51-2.31 89.642 2.649 101.107 1.953 4.518 5.496 5.948 9.747 7.756l-.071 11.335-60.544-.044c-3.251-.026-1.929.474-4.356-.916-1.29-2.892-.65-6.635-.451-9.962 4.056-2.823 9.197-7.399 9.808-12.76 3.264-28.618 1.37-58.936 1.198-87.794-.062-10.499-2.644-14.094-12.386-16.238.138-4.274.451-8.748.691-13.037 16.497-2.833 32.583-6.272 48.978-9.573m-20.959-64.933c12.842-2.392 25.214 6.009 27.729 18.828 2.514 12.818-5.766 25.27-18.56 27.908-12.969 2.675-25.629-5.744-28.178-18.738-2.55-12.995 5.991-25.574 19.009-27.998M199.087 785.862h-15.091v38.976h-12.462v-38.976h-15.09v-9.346h42.643zm44.103 20.77q0 8.99-5.258 14.182-5.224 5.16-14.701 5.16t-14.733-5.16q-5.225-5.193-5.225-14.182 0-9.054 5.257-14.214 5.29-5.16 14.701-5.16 9.541 0 14.734 5.192 5.225 5.193 5.225 14.182m-14.377 8.86q1.136-1.396 1.688-3.343.584-1.98.584-5.452 0-3.213-.584-5.387-.585-2.174-1.623-3.473-1.038-1.33-2.499-1.882a8.8 8.8 0 0 0-3.148-.552q-1.687 0-3.018.455-1.297.454-2.499 1.817-1.07 1.265-1.72 3.473-.616 2.207-.616 5.549 0 2.985.551 5.192.552 2.175 1.623 3.505 1.038 1.266 2.467 1.85 1.46.584 3.31.584 1.59 0 3.018-.519a5.67 5.67 0 0 0 2.466-1.817m58.188 5.16q0 5.127-1.46 8.632-1.461 3.505-4.089 5.485-2.63 2.012-6.361 2.888-3.7.909-8.373.909-3.796 0-7.497-.455-3.667-.454-6.36-1.103v-9.119h1.428q2.142.844 5.224 1.525 3.084.714 5.517.714 3.245 0 5.258-.617 2.044-.584 3.115-1.687 1.006-1.04 1.461-2.661.454-1.623.454-3.895v-.681a17.4 17.4 0 0 1-4.673 2.726q-2.563 1.005-5.712 1.006-7.659 0-11.813-4.608-4.154-4.61-4.154-14.02 0-4.511 1.266-7.789t3.57-5.711q2.142-2.272 5.257-3.538 3.148-1.265 6.426-1.265 2.953 0 5.354.714 2.434.681 4.414 1.914l.422-1.622h11.326zm-11.683-7.302v-16.519q-1.006-.421-2.466-.649-1.46-.26-2.629-.259-4.608 0-6.913 2.661-2.304 2.628-2.304 7.367 0 5.256 1.947 7.334 1.98 2.077 5.842 2.077a11 11 0 0 0 3.44-.552 13 13 0 0 0 3.083-1.46m58.61-4.576h-26.741q.259 4.284 3.245 6.555 3.018 2.272 8.859 2.272 3.7 0 7.172-1.33 3.473-1.33 5.485-2.856h1.298v9.379q-3.958 1.59-7.464 2.304-3.505.714-7.756.714-10.969 0-16.811-4.933-5.841-4.933-5.841-14.052 0-9.022 5.517-14.279 5.549-5.29 15.188-5.29 8.892 0 13.37 4.511 4.479 4.478 4.479 12.916zm-11.618-6.848q-.098-3.666-1.818-5.517-1.719-1.85-5.355-1.849-3.374 0-5.549 1.752t-2.434 5.614zm43.162 22.588a31 31 0 0 1-3.992.746q-2.109.292-5.16.292-6.815 0-10.158-2.758-3.31-2.758-3.31-9.444v-17.038h-4.803v-7.918h4.803v-10.418h11.683v10.418h10.937v7.918h-10.937v12.916q0 1.915.033 3.343.032 1.428.519 2.564.455 1.136 1.59 1.817 1.168.65 3.375.649.91 0 2.369-.389 1.493-.39 2.077-.714h.974zm43.616.324H397.34v-18.076q0-2.207-.227-4.381-.227-2.207-.779-3.245a3.88 3.88 0 0 0-1.915-1.753q-1.233-.552-3.472-.552-1.59 0-3.245.52-1.623.519-3.538 1.655v25.832h-11.683v-50.496h11.683v18.076q3.116-2.435 5.972-3.732 2.887-1.298 6.393-1.298 5.907 0 9.216 3.44 3.343 3.44 3.343 10.287zm46.667-16.064h-26.741q.26 4.284 3.245 6.555 3.019 2.272 8.86 2.272 3.7 0 7.172-1.33t5.485-2.856h1.298v9.379q-3.96 1.59-7.464 2.304t-7.757.714q-10.969 0-16.81-4.933-5.842-4.933-5.842-14.052 0-9.022 5.517-14.279 5.55-5.29 15.188-5.29 8.892 0 13.371 4.511 4.478 4.478 4.478 12.916zm-11.618-6.848q-.098-3.666-1.817-5.517-1.72-1.85-5.355-1.849-3.375 0-5.549 1.752t-2.434 5.614zm46.278-2.401h-1.039q-.746-.26-2.401-.389a36 36 0 0 0-2.759-.13q-2.499 0-4.413.324-1.916.325-4.122 1.104v24.404h-11.683v-36.444h11.683v5.354q3.862-3.31 6.718-4.381 2.856-1.103 5.257-1.103.616 0 1.396.032.778.033 1.363.098zm87.46-11.131-11.294 36.444h-12.397l-7.431-24.567-7.302 24.567h-12.559l-11.197-36.444h12.267l6.231 25.118 7.789-25.118h10.352l7.4 25.118 6.133-25.118zm42.87 20.38h-26.741q.26 4.284 3.245 6.555 3.018 2.272 8.86 2.272 3.7 0 7.172-1.33 3.473-1.33 5.484-2.856h1.298v9.379q-3.959 1.59-7.464 2.304t-7.756.714q-10.969 0-16.811-4.933-5.841-4.933-5.841-14.052 0-9.022 5.517-14.279 5.55-5.29 15.188-5.29 8.892 0 13.37 4.511 4.479 4.478 4.479 12.916zm-11.618-6.848q-.098-3.666-1.818-5.517-1.72-1.85-5.354-1.849-3.375 0-5.55 1.752t-2.434 5.614zm68.994-2.401h-1.038q-.747-.26-2.402-.389a36 36 0 0 0-2.758-.13q-2.499 0-4.414.324-1.914.325-4.121 1.104v24.404h-11.683v-36.444h11.683v5.354q3.862-3.31 6.717-4.381 2.856-1.103 5.258-1.103.616 0 1.395.032.779.033 1.363.098zm18.304 25.313h-11.683v-36.444h11.683zm.324-41.637h-12.332v-8.859h12.332zm42.383 30.084q0 5.646-5.062 9.119-5.062 3.44-13.858 3.44-4.867 0-8.827-.909-3.959-.908-6.36-2.012v-9.606h1.07q.877.617 2.013 1.363 1.168.715 3.277 1.558 1.818.746 4.122 1.298 2.304.519 4.933.519 3.44 0 5.095-.746 1.655-.778 1.655-2.272 0-1.33-.974-1.914-.973-.617-3.699-1.169-1.299-.292-3.538-.616a41 41 0 0 1-4.024-.844q-4.965-1.298-7.367-4.024-2.401-2.759-2.401-6.848 0-5.258 4.965-8.729 4.998-3.505 13.63-3.505 4.089 0 7.821.843 3.765.811 5.874 1.753v9.216h-1.006q-2.596-1.784-5.939-2.888a20.6 20.6 0 0 0-6.717-1.136q-2.824 0-4.771.779-1.914.779-1.915 2.207 0 1.298.877 1.98.876.68 4.121 1.363 1.785.357 3.83.714 2.077.324 4.153.843 4.609 1.201 6.816 3.797 2.206 2.563 2.206 6.426m43.682-4.511h-26.741q.26 4.284 3.245 6.555 3.018 2.272 8.86 2.272 3.7 0 7.172-1.33 3.473-1.33 5.484-2.856h1.298v9.379q-3.959 1.59-7.464 2.304t-7.756.714q-10.969 0-16.811-4.933-5.841-4.933-5.841-14.052 0-9.022 5.517-14.279 5.549-5.29 15.188-5.29 8.892 0 13.37 4.511 4.479 4.478 4.479 12.916zm-11.618-6.848q-.098-3.666-1.818-5.517-1.72-1.85-5.354-1.849-3.375 0-5.55 1.752t-2.434 5.614z"/></svg>