<svg xmlns="http://www.w3.org/2000/svg" width="941" height="941" fill="none"><path fill="#fff" d="m443.125 104.818 1.161-.171c89.395-7.464 178.015 20.132 246.993 76.962a367.92 367.92 0 0 1 133.273 252.74c7.99 85.419-17.199 173.17-72.724 239.148a263.96 263.96 0 0 1-179.966 93.326c-73.198 5.735-146.042-15.492-201.653-64.1-101.041-88.317-126.955-251.912-35.063-356.163a215.23 215.23 0 0 1 148.365-71.969c53.747-3.027 108.312 15.062 148.238 51.461a171.12 171.12 0 0 1 54.682 119.26c2.853 71.916-36.528 130.677-106.688 149.921-9.218 2.434-19.368 4.538-28.946 4.576-53.645.219-119.487-43.035-109.576-103.337 2.923-17.788 8.599-29.523 21.392-41.989 10.477-10.212 23.273-15.478 37.819-14.859 16.595.71 29.783 12.26 24.063 29.423-3.834 8.965-14.756 17.214-15.351 27.396-1.362 23.319 21.935 38.774 43.097 39.286 17.441.425 32.93-8.599 44.645-20.526 37.583-38.261 26.476-100.941-9.546-136.028-25.303-24.67-57.06-34.268-91.611-34.05a147.96 147.96 0 0 0-104.348 43.728c-33.956 34.471-47.082 75.72-47.017 123.168.781 18.545 2.729 31.615 8.496 49.548a186.9 186.9 0 0 0 94.184 109.897c114.041 58.054 240.365.728 295.487-109.558a260.64 260.64 0 0 0 12.71-199.381 288.85 288.85 0 0 0-145.53-166.315C355.218 71.835 96.342 340.975 187.199 596.267c37.748 105.492 124.992 185.657 233.298 214.364a346 346 0 0 0 42.773 8.72c9.46 1.341 28.133 1.226 35.409 4.653 2.979 6.083 2.82 3.165 1.73 8.906-3.127 3.363-7.771 5.057-12.301 5.102-84.824.778-175.716-31.304-240.073-83.764a366.82 366.82 0 0 1-131.411-247.559 370.22 370.22 0 0 1 82.493-273.522 361.75 361.75 0 0 1 244.008-128.349"/></svg>